<?xml version="1.0" encoding="UTF-8"?>
<svg width="24" height="24" xmlns:svg="http://www.w3.org/2000/svg" xmlns="http://www.w3.org/2000/svg">
  <defs>
    <style type="text/css">rect { fill: white; } path {stroke: white; fill: none; }</style>
  </defs>
  <g>
    <path d="M 2.5,3.5 A 1.5,1.5 0 0 0 1.5,5 l 0,16 A 1.5,1.5 0 0 0 3,22.5 l 16,0 A 1.5,1.5 0 0 0 20.5,21 l 0,-16 A 1.5,1.5 0 0 0 19,3.5 l -16,0 a 1.5,1.5 0 0 0 -0.15625,0 z" />
    <g transform="translate(0,1)">
      <rect width="2" height="4" x="6" />
      <rect width="2" height="4" x="14" />
    </g>
    <g>
      <g transform="translate(0,9)">
        <rect width="2" height="2" x="7"/>
        <rect width="2" height="2" x="10"/>
        <rect width="2" height="2" x="13"/>
        <rect width="2" height="2" x="16"/>
      </g>
      <g transform="translate(0,12)">
        <rect width="2" height="2" x="4"/>
        <rect width="2" height="2" x="7"/>
        <rect width="2" height="2" x="10"/>
        <rect width="2" height="2" x="13"/>
        <rect width="2" height="2" x="16"/>
      </g>
      <g transform="translate(0,15)">
        <rect width="2" height="2" x="4"/>
        <rect width="2" height="2" x="7"/>
        <rect width="2" height="2" x="10"/>
        <rect width="2" height="2" x="13"/>
        <rect width="2" height="2" x="16"/>
      </g>
      <g transform="translate(0,18)">
        <rect width="2" height="2" x="4"/>
        <rect width="2" height="2" x="7"/>
        <rect width="2" height="2" x="10"/>
      </g>
    </g>
  </g>
</svg>
