<?xml version="1.0" encoding="utf-8"?>
<!DOCTYPE svg PUBLIC "-//W3C//DTD SVG 1.1//EN" "http://www.w3.org/Graphics/SVG/1.1/DTD/svg11.dtd">
<svg version="1.1" xmlns="http://www.w3.org/2000/svg" xmlns:xlink="http://www.w3.org/1999/xlink" x="0px" y="0px" viewBox="0 0 1000 1000" enable-background="new 0 0 1000 1000" xml:space="preserve">
<defs xmlns="http://www.w3.org/2000/svg">
  <style type="text/css">path {stroke: white; fill: white; }</style>
 </defs>
<g><path d="M914.8,198.1h-178l-70.2-90.1c-3.9-5-9.8-7.9-16.2-7.9H359.8c-6.5,0-12.6,3.1-16.5,8.3l-66,89.7H85.2c-41.5,0-75.2,33.7-75.2,75.2v551.6c0,41.5,33.7,75.2,75.2,75.2h829.7c41.5,0,75.2-33.7,75.2-75.2V273.2C990,231.8,956.3,198.1,914.8,198.1L914.8,198.1z M949.1,824.8c0,18.9-15.4,34.2-34.2,34.2H85.2c-18.9,0-34.2-15.4-34.2-34.2V273.2c0-18.9,15.4-34.2,34.2-34.2h202.5c6.5,0,12.6-3.1,16.5-8.3l66-89.7h270.3l70.2,90.1c3.9,5,9.8,7.9,16.2,7.9h188c18.9,0,34.2,15.4,34.2,34.2L949.1,824.8L949.1,824.8z M510.3,321.1c-127.6,0-231.3,103.8-231.3,231.3c0,127.6,103.8,231.3,231.3,231.3c127.6,0,231.3-103.8,231.3-231.3S637.8,321.1,510.3,321.1L510.3,321.1z M510.3,742.8c-105,0-190.4-85.4-190.4-190.4c0-104.9,85.4-190.4,190.4-190.4c105,0,190.4,85.4,190.4,190.4C700.6,657.4,615.2,742.8,510.3,742.8L510.3,742.8z M797.4,341.9L797.4,341.9c0,16.6,13.4,30,30,30c16.6,0,30-13.4,30-30l0,0l0,0c0-16.6-13.4-30-30-30C810.8,312,797.4,325.4,797.4,341.9L797.4,341.9L797.4,341.9z"/></g>
</svg>
